<mxfile host="app.diagrams.net" agent="Mozilla/5.0 (Macintosh; Intel Mac OS X 10_15_7) AppleWebKit/537.36 (KHTML, like Gecko) Chrome/131.0.0.0 Safari/537.36" version="25.0.3">
  <diagram name="Page-1" id="B9-0qQRHNgQaiQMlwSdl">
    <mxGraphModel dx="1812" dy="711" grid="0" gridSize="10" guides="1" tooltips="1" connect="1" arrows="1" fold="1" page="0" pageScale="1" pageWidth="850" pageHeight="1100" math="0" shadow="0">
      <root>
        <mxCell id="0" />
        <mxCell id="1" parent="0" />
        <mxCell id="esbM8Xqp4N09gwLVMhb3-17" style="edgeStyle=orthogonalEdgeStyle;rounded=0;orthogonalLoop=1;jettySize=auto;html=1;exitX=1;exitY=0.5;exitDx=0;exitDy=0;entryX=0;entryY=0.5;entryDx=0;entryDy=0;" edge="1" parent="1" source="esbM8Xqp4N09gwLVMhb3-7" target="esbM8Xqp4N09gwLVMhb3-8">
          <mxGeometry relative="1" as="geometry" />
        </mxCell>
        <mxCell id="esbM8Xqp4N09gwLVMhb3-7" value="" style="rounded=0;whiteSpace=wrap;html=1;" vertex="1" parent="1">
          <mxGeometry x="127" y="410.5" width="120" height="60" as="geometry" />
        </mxCell>
        <mxCell id="esbM8Xqp4N09gwLVMhb3-3" value="&lt;font style=&quot;font-size: 16px;&quot;&gt;用户提问&lt;/font&gt;" style="text;html=1;align=center;verticalAlign=middle;whiteSpace=wrap;rounded=0;" vertex="1" parent="1">
          <mxGeometry x="144" y="422" width="86" height="37" as="geometry" />
        </mxCell>
        <mxCell id="esbM8Xqp4N09gwLVMhb3-38" style="edgeStyle=orthogonalEdgeStyle;rounded=0;orthogonalLoop=1;jettySize=auto;html=1;exitX=1;exitY=0.5;exitDx=0;exitDy=0;entryX=0;entryY=0.5;entryDx=0;entryDy=0;" edge="1" parent="1" source="esbM8Xqp4N09gwLVMhb3-6" target="esbM8Xqp4N09gwLVMhb3-7">
          <mxGeometry relative="1" as="geometry" />
        </mxCell>
        <mxCell id="esbM8Xqp4N09gwLVMhb3-6" value="&lt;font style=&quot;font-size: 16px;&quot;&gt;开始&lt;/font&gt;" style="ellipse;whiteSpace=wrap;html=1;" vertex="1" parent="1">
          <mxGeometry x="-39" y="400.5" width="120" height="80" as="geometry" />
        </mxCell>
        <mxCell id="esbM8Xqp4N09gwLVMhb3-19" style="edgeStyle=orthogonalEdgeStyle;rounded=0;orthogonalLoop=1;jettySize=auto;html=1;exitX=1;exitY=0.5;exitDx=0;exitDy=0;entryX=0;entryY=0.5;entryDx=0;entryDy=0;" edge="1" parent="1" source="esbM8Xqp4N09gwLVMhb3-8" target="esbM8Xqp4N09gwLVMhb3-9">
          <mxGeometry relative="1" as="geometry">
            <Array as="points">
              <mxPoint x="441" y="441" />
              <mxPoint x="441" y="313" />
            </Array>
          </mxGeometry>
        </mxCell>
        <mxCell id="esbM8Xqp4N09gwLVMhb3-34" value="&lt;font style=&quot;font-size: 16px;&quot;&gt;不相关&lt;/font&gt;" style="edgeLabel;html=1;align=center;verticalAlign=middle;resizable=0;points=[];" vertex="1" connectable="0" parent="esbM8Xqp4N09gwLVMhb3-19">
          <mxGeometry x="-0.0774" y="-1" relative="1" as="geometry">
            <mxPoint as="offset" />
          </mxGeometry>
        </mxCell>
        <mxCell id="esbM8Xqp4N09gwLVMhb3-21" style="edgeStyle=orthogonalEdgeStyle;rounded=0;orthogonalLoop=1;jettySize=auto;html=1;exitX=1;exitY=0.5;exitDx=0;exitDy=0;entryX=0;entryY=0.5;entryDx=0;entryDy=0;" edge="1" parent="1" source="esbM8Xqp4N09gwLVMhb3-8" target="esbM8Xqp4N09gwLVMhb3-10">
          <mxGeometry relative="1" as="geometry">
            <Array as="points">
              <mxPoint x="441" y="441" />
              <mxPoint x="441" y="494" />
            </Array>
          </mxGeometry>
        </mxCell>
        <mxCell id="esbM8Xqp4N09gwLVMhb3-35" value="&lt;font style=&quot;font-size: 16px;&quot;&gt;相关&lt;/font&gt;" style="edgeLabel;html=1;align=center;verticalAlign=middle;resizable=0;points=[];" vertex="1" connectable="0" parent="esbM8Xqp4N09gwLVMhb3-21">
          <mxGeometry x="-0.2264" y="-1" relative="1" as="geometry">
            <mxPoint as="offset" />
          </mxGeometry>
        </mxCell>
        <mxCell id="esbM8Xqp4N09gwLVMhb3-8" value="&lt;font style=&quot;font-size: 16px;&quot;&gt;领域路由&lt;/font&gt;" style="rhombus;whiteSpace=wrap;html=1;" vertex="1" parent="1">
          <mxGeometry x="313" y="398" width="100" height="85" as="geometry" />
        </mxCell>
        <mxCell id="esbM8Xqp4N09gwLVMhb3-9" value="&lt;font style=&quot;font-size: 16px;&quot;&gt;引导用户提问与东博会相关问题&lt;/font&gt;" style="rounded=0;whiteSpace=wrap;html=1;" vertex="1" parent="1">
          <mxGeometry x="468" y="281" width="241" height="63" as="geometry" />
        </mxCell>
        <mxCell id="esbM8Xqp4N09gwLVMhb3-23" style="edgeStyle=orthogonalEdgeStyle;rounded=0;orthogonalLoop=1;jettySize=auto;html=1;exitX=1;exitY=0.5;exitDx=0;exitDy=0;" edge="1" parent="1" source="esbM8Xqp4N09gwLVMhb3-10" target="esbM8Xqp4N09gwLVMhb3-11">
          <mxGeometry relative="1" as="geometry" />
        </mxCell>
        <mxCell id="esbM8Xqp4N09gwLVMhb3-36" value="&lt;font style=&quot;font-size: 16px;&quot;&gt;属性信息&lt;/font&gt;" style="edgeLabel;html=1;align=center;verticalAlign=middle;resizable=0;points=[];" vertex="1" connectable="0" parent="esbM8Xqp4N09gwLVMhb3-23">
          <mxGeometry x="-0.032" y="1" relative="1" as="geometry">
            <mxPoint as="offset" />
          </mxGeometry>
        </mxCell>
        <mxCell id="esbM8Xqp4N09gwLVMhb3-25" style="edgeStyle=orthogonalEdgeStyle;rounded=0;orthogonalLoop=1;jettySize=auto;html=1;exitX=1;exitY=0.5;exitDx=0;exitDy=0;entryX=0;entryY=0.5;entryDx=0;entryDy=0;" edge="1" parent="1" source="esbM8Xqp4N09gwLVMhb3-10" target="esbM8Xqp4N09gwLVMhb3-12">
          <mxGeometry relative="1" as="geometry" />
        </mxCell>
        <mxCell id="esbM8Xqp4N09gwLVMhb3-37" value="&lt;font style=&quot;font-size: 16px;&quot;&gt;语义信息&lt;/font&gt;" style="edgeLabel;html=1;align=center;verticalAlign=middle;resizable=0;points=[];" vertex="1" connectable="0" parent="esbM8Xqp4N09gwLVMhb3-25">
          <mxGeometry x="0.0274" y="-2" relative="1" as="geometry">
            <mxPoint as="offset" />
          </mxGeometry>
        </mxCell>
        <mxCell id="esbM8Xqp4N09gwLVMhb3-10" value="&lt;font style=&quot;font-size: 16px;&quot;&gt;查询路由&lt;/font&gt;" style="rhombus;whiteSpace=wrap;html=1;" vertex="1" parent="1">
          <mxGeometry x="507" y="447" width="97" height="93" as="geometry" />
        </mxCell>
        <mxCell id="esbM8Xqp4N09gwLVMhb3-27" style="edgeStyle=orthogonalEdgeStyle;rounded=0;orthogonalLoop=1;jettySize=auto;html=1;exitX=1;exitY=0.5;exitDx=0;exitDy=0;entryX=0;entryY=0.5;entryDx=0;entryDy=0;" edge="1" parent="1" source="esbM8Xqp4N09gwLVMhb3-11" target="esbM8Xqp4N09gwLVMhb3-13">
          <mxGeometry relative="1" as="geometry" />
        </mxCell>
        <mxCell id="esbM8Xqp4N09gwLVMhb3-11" value="&lt;font style=&quot;font-size: 16px;&quot;&gt;结构化查询&lt;/font&gt;" style="rounded=0;whiteSpace=wrap;html=1;" vertex="1" parent="1">
          <mxGeometry x="696" y="410.5" width="120" height="60" as="geometry" />
        </mxCell>
        <mxCell id="esbM8Xqp4N09gwLVMhb3-31" style="edgeStyle=orthogonalEdgeStyle;rounded=0;orthogonalLoop=1;jettySize=auto;html=1;exitX=1;exitY=0.5;exitDx=0;exitDy=0;entryX=0;entryY=0.5;entryDx=0;entryDy=0;" edge="1" parent="1" source="esbM8Xqp4N09gwLVMhb3-12" target="esbM8Xqp4N09gwLVMhb3-13">
          <mxGeometry relative="1" as="geometry" />
        </mxCell>
        <mxCell id="esbM8Xqp4N09gwLVMhb3-12" value="&lt;font style=&quot;font-size: 16px;&quot;&gt;向量式检索&lt;/font&gt;" style="rounded=0;whiteSpace=wrap;html=1;" vertex="1" parent="1">
          <mxGeometry x="696" y="529" width="120" height="60" as="geometry" />
        </mxCell>
        <mxCell id="esbM8Xqp4N09gwLVMhb3-32" style="edgeStyle=orthogonalEdgeStyle;rounded=0;orthogonalLoop=1;jettySize=auto;html=1;exitX=1;exitY=0.5;exitDx=0;exitDy=0;entryX=0;entryY=0.5;entryDx=0;entryDy=0;" edge="1" parent="1" source="esbM8Xqp4N09gwLVMhb3-13" target="esbM8Xqp4N09gwLVMhb3-14">
          <mxGeometry relative="1" as="geometry" />
        </mxCell>
        <mxCell id="esbM8Xqp4N09gwLVMhb3-13" value="&lt;font style=&quot;font-size: 16px;&quot;&gt;Sailor2 LLM&lt;/font&gt;" style="rounded=0;whiteSpace=wrap;html=1;" vertex="1" parent="1">
          <mxGeometry x="907" y="469" width="120" height="60" as="geometry" />
        </mxCell>
        <mxCell id="esbM8Xqp4N09gwLVMhb3-33" style="edgeStyle=orthogonalEdgeStyle;rounded=0;orthogonalLoop=1;jettySize=auto;html=1;exitX=1;exitY=0.5;exitDx=0;exitDy=0;entryX=0;entryY=0.5;entryDx=0;entryDy=0;" edge="1" parent="1" source="esbM8Xqp4N09gwLVMhb3-14" target="esbM8Xqp4N09gwLVMhb3-15">
          <mxGeometry relative="1" as="geometry" />
        </mxCell>
        <mxCell id="esbM8Xqp4N09gwLVMhb3-14" value="&lt;font style=&quot;font-size: 16px;&quot;&gt;最终答案&lt;/font&gt;" style="rounded=0;whiteSpace=wrap;html=1;" vertex="1" parent="1">
          <mxGeometry x="1078" y="469" width="120" height="60" as="geometry" />
        </mxCell>
        <mxCell id="esbM8Xqp4N09gwLVMhb3-15" value="&lt;font style=&quot;font-size: 16px;&quot;&gt;结束&lt;/font&gt;" style="ellipse;whiteSpace=wrap;html=1;" vertex="1" parent="1">
          <mxGeometry x="1241" y="459" width="120" height="80" as="geometry" />
        </mxCell>
      </root>
    </mxGraphModel>
  </diagram>
</mxfile>
